# xmcd CD database file
#
# Track frame offsets:
#	150
#	14504
#	26489
#	40305
#	52588
#	66717
#	79085
#	92292
#	103150
#	115392
#	128694
#	143519
#	156176
#	171065
#	181330
#	194155
#	208920
#	222433
#	233585
#	247333
#
# Disc length: 3474 seconds
#
# Revision: 1
# Processed by: cddbd v1.4PL0 Copyright (c) Steve Scherf et al.
# Submitted via: CDex 1.50
#
DISCID=1f0d9014
DTITLE=Josephine Baker - J'ai deux amours
DYEAR=2003
DGENRE=Jazz
TTITLE0=J'ai deux amours (1930)
TTITLE1=La petite tonkinoise (1930)
TTITLE2=Toc toc partout (1937)
TTITLE3=Si j'etais blanche (1932)
TTITLE4=Dis-moi Josephine (1930)
TTITLE5=Pardon si je t'importune (1931)
TTITLE6=Tes mots d'amour (1933)
TTITLE7=La conga blicoti (1936)
TTITLE8=Ram-pam-pam (1932)
TTITLE9=Voulez-vous de la canne a sucre? (1930)
TTITLE10=Sous le ciel d'afrique (1937)
TTITLE11=J'ai peur de rever (1937)
TTITLE12=Haiti (1934)
TTITLE13=Mon Paris (1937)
TTITLE14=Aux iles Hawai (1931)
TTITLE15=Sans amour (1932)
TTITLE16=C'est lui (1934)
TTITLE17=Paris mes amours (1935)
TTITLE18=Partir sur un bateau tout blanc (1935)
TTITLE19=Sur deux notes (1939)
EXTD=YEAR: 2003
EXTT0=
EXTT1=
EXTT2=
EXTT3=
EXTT4=
EXTT5=
EXTT6=
EXTT7=
EXTT8=
EXTT9=
EXTT10=
EXTT11=
EXTT12=
EXTT13=
EXTT14=
EXTT15=
EXTT16=
EXTT17=
EXTT18=
EXTT19=
PLAYORDER=
